<svg xmlns="http://www.w3.org/2000/svg" width="920" height="400" viewBox="0 0 920 400">
  <rect width="100%" height="100%" fill="#ffffff" />
  <text x="120" y="28" font-size="18" font-family="Arial, sans-serif" font-weight="700">Cross-Platform Validation: absolute error vs statevector reference</text>
  <g font-family="Arial, sans-serif" fill="#111827">
    <rect x="120" y="45" width="770" height="295" fill="none" stroke="#111827" stroke-width="1" />
    <line x1="120" y1="230.7" x2="890" y2="230.7" stroke="#ff9800" stroke-dasharray="6,3" stroke-width="1.5" /><text x="124" y="226.7407407407407" font-size="10" fill="#ff9800">warning=0.08</text><line x1="120" y1="94.2" x2="890" y2="94.2" stroke="#f44336" stroke-dasharray="6,3" stroke-width="1.5" /><text x="124" y="90.16666666666669" font-size="10" fill="#f44336">fail=0.18</text>
    <rect x="230.0" y="327.3" width="110.0" height="12.7" fill="#1f77b4" opacity="0.8" /><line x1="285.0" y1="287.5" x2="285.0" y2="327.3" stroke="#1f77b4" stroke-width="2" /><text x="285.0" y="358.0" font-size="11" text-anchor="middle">aer-sampler</text><rect x="450.0" y="329.3" width="110.0" height="10.7" fill="#d62728" opacity="0.8" /><line x1="505.0" y1="291.8" x2="505.0" y2="329.3" stroke="#d62728" stroke-width="2" /><text x="505.0" y="358.0" font-size="11" text-anchor="middle">braket-local</text><rect x="670.0" y="327.4" width="110.0" height="12.6" fill="#2ca02c" opacity="0.8" /><line x1="725.0" y1="223.3" x2="725.0" y2="327.4" stroke="#2ca02c" stroke-width="2" /><text x="725.0" y="358.0" font-size="11" text-anchor="middle">originq-cpuqvm</text>
    <rect x="720" y="45" width="14" height="14" fill="#1f77b4" /><text x="740" y="57" font-size="12">aer-sampler (mean=0.0093)</text><rect x="720" y="63" width="14" height="14" fill="#d62728" /><text x="740" y="75" font-size="12">braket-local (mean=0.0078)</text><rect x="720" y="81" width="14" height="14" fill="#2ca02c" /><text x="740" y="93" font-size="12">originq-cpuqvm (mean=0.0092)</text>
    <text x="18" y="192" font-size="13" text-anchor="middle" transform="rotate(-90 18 192)">absolute error</text>
  </g>
</svg>
