<svg xmlns="http://www.w3.org/2000/svg" width="520" height="520" viewBox="0 0 520 520"><rect width="520" height="520" fill="#0b0e14"/><line x1="60" y1="460" x2="460" y2="460" stroke="#30363d" stroke-width="1" opacity="1"/><line x1="60" y1="60" x2="60" y2="460" stroke="#30363d" stroke-width="1" opacity="1"/><polyline points="60,460 61.338,459.334 62.676,457.703 64.013,455.316 65.351,452.283 66.689,448.683 68.027,444.577 69.365,440.015 70.702,435.041 72.04,429.691 73.378,423.998 74.716,417.993 76.054,411.704 77.391,405.155 78.729,398.371 80.067,391.374 81.405,384.184 82.742,376.822 84.08,369.305 85.418,361.652 86.756,353.881 88.094,346.006 89.431,338.045 90.769,330.011 92.107,321.92 93.445,313.785 94.783,305.621 96.12,297.439 97.458,289.254 98.796,281.076 100.134,272.918 101.472,264.791 102.809,256.707 104.147,248.676 105.485,240.708 106.823,232.815 108.161,225.005 109.498,217.288 110.836,209.673 112.174,202.17 113.512,194.787 114.849,187.532 116.187,180.414 117.525,173.44 118.863,166.619 120.201,159.956 121.538,153.461 122.876,147.138 124.214,140.995 125.552,135.039 126.89,129.274 128.227,123.708 129.565,118.345 130.903,113.191 132.241,108.251 133.579,103.53 134.916,99.033 136.254,94.763 137.592,90.725 138.93,86.922 140.268,83.359 141.605,80.039 142.943,76.964 144.281,74.138 145.619,71.564 146.957,69.243 148.294,67.178 149.632,65.371 150.97,63.823 152.308,62.536 153.645,61.511 154.983,60.749 156.321,60.251 157.659,60.016 158.997,60.047 160.334,60.341 161.672,60.9 163.01,61.722 164.348,62.807 165.686,64.154 167.023,65.761 168.361,67.627 169.699,69.751 171.037,72.13 172.375,74.763 173.712,77.646 175.05,80.777 176.388,84.153 177.726,87.771 179.064,91.628 180.401,95.719 181.739,100.041 183.077,104.591 184.415,109.362 185.753,114.351 187.09,119.553 188.428,124.963 189.766,130.575 191.104,136.384 192.441,142.384 193.779,148.569 195.117,154.931 196.455,161.466 197.793,168.165 199.13,175.022 200.468,182.03 201.806,189.18 203.144,196.465 204.482,203.876 205.819,211.405 207.157,219.044 208.495,226.783 209.833,234.613 211.171,242.524 212.508,250.507 213.846,258.552 215.184,266.647 216.522,274.781 217.86,282.945 219.197,291.126 220.535,299.311 221.873,307.49 223.211,315.649 224.548,323.775 225.886,331.854 227.224,339.872 228.562,347.815 229.9,355.668 231.237,363.414 232.575,371.037 233.913,378.52 235.251,385.845 236.589,392.992 237.926,399.943 239.264,406.675 240.602,413.166 241.94,419.393 243.278,425.329 244.615,430.946 245.953,436.213 247.291,441.097 248.629,445.558 249.967,449.553 251.304,453.029 252.642,455.922 253.98,458.148 255.318,459.583 256.656,459.955 257.993,459.036 259.331,457.219 260.669,454.676 262.007,451.507 263.344,447.786 264.682,443.572 266.02,438.913 267.358,433.849 268.696,428.418 270.033,422.651 271.371,416.579 272.709,410.228 274.047,403.624 275.385,396.789 276.722,389.746 278.06,382.515 279.398,375.115 280.736,367.566 282.074,359.885 283.411,352.088 284.749,344.192 286.087,336.213 287.425,328.165 288.763,320.063 290.1,311.92 291.438,303.751 292.776,295.567 294.114,287.382 295.452,279.208 296.789,271.056 298.127,262.938 299.465,254.865 300.803,246.847 302.14,238.896 303.478,231.021 304.816,223.231 306.154,215.537 307.492,207.947 308.829,200.47 310.167,193.116 311.505,185.892 312.843,178.806 314.181,171.867 315.518,165.081 316.856,158.456 318.194,151.999 319.532,145.717 320.87,139.616 322.207,133.703 323.545,127.983 324.883,122.463 326.221,117.148 327.559,112.042 328.896,107.152 330.234,102.482 331.572,98.036 332.91,93.819 334.247,89.834 335.585,86.086 336.923,82.578 338.261,79.314 339.599,76.296 340.936,73.527 342.274,71.01 343.612,68.748 344.95,66.742 346.288,64.994 347.625,63.505 348.963,62.278 350.301,61.313 351.639,60.612 352.977,60.174 354.314,60 355.652,60.091 356.99,60.446 358.328,61.065 359.666,61.947 361.003,63.092 362.341,64.498 363.679,66.165 365.017,68.091 366.355,70.273 367.692,72.71 369.03,75.4 370.368,78.34 371.706,81.527 373.043,84.959 374.381,88.632 375.719,92.543 377.057,96.687 378.395,101.062 379.732,105.662 381.07,110.484 382.408,115.523 383.746,120.773 385.084,126.229 386.421,131.887 387.759,137.74 389.097,143.782 390.435,150.008 391.773,156.411 393.11,162.984 394.448,169.72 395.786,176.612 397.124,183.653 398.462,190.834 399.799,198.149 401.137,205.588 402.475,213.143 403.813,220.805 405.151,228.566 406.488,236.416 407.826,244.344 409.164,252.342 410.502,260.399 411.839,268.504 413.177,276.646 414.515,284.815 415.853,292.998 417.191,301.183 418.528,309.358 419.866,317.511 421.204,325.627 422.542,333.694 423.88,341.696 425.217,349.62 426.555,357.449 427.893,365.169 429.231,372.761 430.569,380.21 431.906,387.496 433.244,394.6 434.582,401.502 435.92,408.182 437.258,414.615 438.595,420.777 439.933,426.642 441.271,432.182 442.609,437.365 443.946,442.156 445.284,446.514 446.622,450.396 447.96,453.745 449.298,456.493 450.635,458.552 451.973,459.78 453.311,459.839 454.649,458.691 455.987,456.697 457.324,454.003 458.662,450.702 460,446.864" fill="none" stroke="#58a6ff" stroke-width="2" opacity="1"/><line x1="60" y1="60" x2="460" y2="60" stroke="#8b949e" stroke-width="1" opacity="0.5"/><line x1="134.629" y1="60" x2="134.629" y2="460" stroke="#f0c674" stroke-width="1.5" opacity="0.8"/><text x="260" y="28" font-size="15" fill="#e6edf3" text-anchor="middle" font-family="monospace">Entanglement build-up  S(t)</text><text x="260" y="498" font-size="11" fill="#8b949e" text-anchor="middle" font-family="monospace">time (attoseconds)  -  build-up (gold) at t=19.6</text><text x="66" y="64" font-size="10" fill="#8b949e" text-anchor="start" font-family="monospace">S = ln 2</text></svg>
