<svg xmlns="http://www.w3.org/2000/svg" width="600" height="600" viewBox="0 0 600 600"><rect width="600" height="600" fill="#0b0e14"/><line x1="92.94" y1="412.112" x2="215.887" y2="371.786" stroke="#30363d" stroke-width="0.8" opacity="0.7"/><line x1="92.94" y1="412.112" x2="92.94" y2="281.382" stroke="#30363d" stroke-width="0.8" opacity="0.7"/><line x1="92.94" y1="412.112" x2="177.053" y2="471.056" stroke="#30363d" stroke-width="0.8" opacity="0.7"/><line x1="177.053" y1="471.056" x2="300" y2="430.73" stroke="#30363d" stroke-width="0.8" opacity="0.7"/><line x1="177.053" y1="471.056" x2="177.053" y2="340.326" stroke="#30363d" stroke-width="0.8" opacity="0.7"/><line x1="177.053" y1="471.056" x2="261.166" y2="530" stroke="#30363d" stroke-width="0.8" opacity="0.7"/><line x1="261.166" y1="530" x2="384.113" y2="489.674" stroke="#30363d" stroke-width="0.8" opacity="0.7"/><line x1="261.166" y1="530" x2="261.166" y2="399.27" stroke="#30363d" stroke-width="0.8" opacity="0.7"/><line x1="92.94" y1="281.382" x2="215.887" y2="241.056" stroke="#30363d" stroke-width="0.8" opacity="0.7"/><line x1="92.94" y1="281.382" x2="92.94" y2="150.652" stroke="#30363d" stroke-width="0.8" opacity="0.7"/><line x1="92.94" y1="281.382" x2="177.053" y2="340.326" stroke="#30363d" stroke-width="0.8" opacity="0.7"/><line x1="177.053" y1="340.326" x2="300" y2="300" stroke="#30363d" stroke-width="0.8" opacity="0.7"/><line x1="177.053" y1="340.326" x2="177.053" y2="209.596" stroke="#30363d" stroke-width="0.8" opacity="0.7"/><line x1="177.053" y1="340.326" x2="261.166" y2="399.27" stroke="#30363d" stroke-width="0.8" opacity="0.7"/><line x1="261.166" y1="399.27" x2="384.113" y2="358.944" stroke="#30363d" stroke-width="0.8" opacity="0.7"/><line x1="261.166" y1="399.27" x2="261.166" y2="268.54" stroke="#30363d" stroke-width="0.8" opacity="0.7"/><line x1="92.94" y1="150.652" x2="215.887" y2="110.326" stroke="#30363d" stroke-width="0.8" opacity="0.7"/><line x1="92.94" y1="150.652" x2="177.053" y2="209.596" stroke="#30363d" stroke-width="0.8" opacity="0.7"/><line x1="177.053" y1="209.596" x2="300" y2="169.27" stroke="#30363d" stroke-width="0.8" opacity="0.7"/><line x1="177.053" y1="209.596" x2="261.166" y2="268.54" stroke="#30363d" stroke-width="0.8" opacity="0.7"/><line x1="261.166" y1="268.54" x2="384.113" y2="228.214" stroke="#30363d" stroke-width="0.8" opacity="0.7"/><line x1="215.887" y1="371.786" x2="338.834" y2="331.46" stroke="#30363d" stroke-width="0.8" opacity="0.7"/><line x1="215.887" y1="371.786" x2="215.887" y2="241.056" stroke="#30363d" stroke-width="0.8" opacity="0.7"/><line x1="215.887" y1="371.786" x2="300" y2="430.73" stroke="#30363d" stroke-width="0.8" opacity="0.7"/><line x1="300" y1="430.73" x2="422.947" y2="390.404" stroke="#30363d" stroke-width="0.8" opacity="0.7"/><line x1="300" y1="430.73" x2="300" y2="300" stroke="#30363d" stroke-width="0.8" opacity="0.7"/><line x1="300" y1="430.73" x2="384.113" y2="489.674" stroke="#30363d" stroke-width="0.8" opacity="0.7"/><line x1="384.113" y1="489.674" x2="507.06" y2="449.348" stroke="#30363d" stroke-width="0.8" opacity="0.7"/><line x1="384.113" y1="489.674" x2="384.113" y2="358.944" stroke="#30363d" stroke-width="0.8" opacity="0.7"/><line x1="215.887" y1="241.056" x2="338.834" y2="200.73" stroke="#30363d" stroke-width="0.8" opacity="0.7"/><line x1="215.887" y1="241.056" x2="215.887" y2="110.326" stroke="#30363d" stroke-width="0.8" opacity="0.7"/><line x1="215.887" y1="241.056" x2="300" y2="300" stroke="#30363d" stroke-width="0.8" opacity="0.7"/><line x1="300" y1="300" x2="422.947" y2="259.674" stroke="#30363d" stroke-width="0.8" opacity="0.7"/><line x1="300" y1="300" x2="300" y2="169.27" stroke="#30363d" stroke-width="0.8" opacity="0.7"/><line x1="300" y1="300" x2="384.113" y2="358.944" stroke="#30363d" stroke-width="0.8" opacity="0.7"/><line x1="384.113" y1="358.944" x2="507.06" y2="318.618" stroke="#30363d" stroke-width="0.8" opacity="0.7"/><line x1="384.113" y1="358.944" x2="384.113" y2="228.214" stroke="#30363d" stroke-width="0.8" opacity="0.7"/><line x1="215.887" y1="110.326" x2="338.834" y2="70" stroke="#30363d" stroke-width="0.8" opacity="0.7"/><line x1="215.887" y1="110.326" x2="300" y2="169.27" stroke="#30363d" stroke-width="0.8" opacity="0.7"/><line x1="300" y1="169.27" x2="422.947" y2="128.944" stroke="#30363d" stroke-width="0.8" opacity="0.7"/><line x1="300" y1="169.27" x2="384.113" y2="228.214" stroke="#30363d" stroke-width="0.8" opacity="0.7"/><line x1="384.113" y1="228.214" x2="507.06" y2="187.888" stroke="#30363d" stroke-width="0.8" opacity="0.7"/><line x1="338.834" y1="331.46" x2="338.834" y2="200.73" stroke="#30363d" stroke-width="0.8" opacity="0.7"/><line x1="338.834" y1="331.46" x2="422.947" y2="390.404" stroke="#30363d" stroke-width="0.8" opacity="0.7"/><line x1="422.947" y1="390.404" x2="422.947" y2="259.674" stroke="#30363d" stroke-width="0.8" opacity="0.7"/><line x1="422.947" y1="390.404" x2="507.06" y2="449.348" stroke="#30363d" stroke-width="0.8" opacity="0.7"/><line x1="507.06" y1="449.348" x2="507.06" y2="318.618" stroke="#30363d" stroke-width="0.8" opacity="0.7"/><line x1="338.834" y1="200.73" x2="338.834" y2="70" stroke="#30363d" stroke-width="0.8" opacity="0.7"/><line x1="338.834" y1="200.73" x2="422.947" y2="259.674" stroke="#30363d" stroke-width="0.8" opacity="0.7"/><line x1="422.947" y1="259.674" x2="422.947" y2="128.944" stroke="#30363d" stroke-width="0.8" opacity="0.7"/><line x1="422.947" y1="259.674" x2="507.06" y2="318.618" stroke="#30363d" stroke-width="0.8" opacity="0.7"/><line x1="507.06" y1="318.618" x2="507.06" y2="187.888" stroke="#30363d" stroke-width="0.8" opacity="0.7"/><line x1="338.834" y1="70" x2="422.947" y2="128.944" stroke="#30363d" stroke-width="0.8" opacity="0.7"/><line x1="422.947" y1="128.944" x2="507.06" y2="187.888" stroke="#30363d" stroke-width="0.8" opacity="0.7"/><polyline points="92.94,412.112 215.887,371.786 338.834,331.46 338.834,200.73 338.834,70 215.887,110.326 92.94,150.652 92.94,281.382 92.94,412.112" fill="none" stroke="#f0c674" stroke-width="3" opacity="0.95"/><circle cx="92.94" cy="412.112" r="4" fill="#58a6ff" stroke="#0b0e14" stroke-width="1" opacity="1"/><circle cx="92.94" cy="281.382" r="4" fill="#58a6ff" stroke="#0b0e14" stroke-width="1" opacity="1"/><circle cx="92.94" cy="150.652" r="4" fill="#58a6ff" stroke="#0b0e14" stroke-width="1" opacity="1"/><circle cx="215.887" cy="371.786" r="4" fill="#58a6ff" stroke="#0b0e14" stroke-width="1" opacity="1"/><circle cx="215.887" cy="110.326" r="4" fill="#58a6ff" stroke="#0b0e14" stroke-width="1" opacity="1"/><circle cx="338.834" cy="331.46" r="4" fill="#58a6ff" stroke="#0b0e14" stroke-width="1" opacity="1"/><circle cx="338.834" cy="200.73" r="4" fill="#58a6ff" stroke="#0b0e14" stroke-width="1" opacity="1"/><circle cx="338.834" cy="70" r="4" fill="#58a6ff" stroke="#0b0e14" stroke-width="1" opacity="1"/><text x="300" y="576" font-size="15" fill="#e6edf3" text-anchor="middle" font-family="monospace">Lattice + Wilson loop — 3D grid projected to 2D</text><text x="300" y="592" font-size="10" fill="#8b949e" text-anchor="middle" font-family="monospace">highlighted closed path = a gauge-invariant Wilson loop (geometry only)</text></svg>
