<svg xmlns="http://www.w3.org/2000/svg" width="600" height="600" viewBox="0 0 600 600"><rect width="600" height="600" fill="#0b0e14"/><line x1="35" y1="300" x2="565" y2="300" stroke="#30363d" stroke-width="1" opacity="1"/><line x1="300" y1="35" x2="300" y2="565" stroke="#30363d" stroke-width="1" opacity="1"/><text x="565" y="292" font-size="12" fill="#8b949e" text-anchor="middle" font-family="monospace">T3</text><text x="314" y="39" font-size="12" fill="#8b949e" text-anchor="middle" font-family="monospace">Y</text><polygon points="223.333,376.667 300,530 376.667,376.667 453.333,223.333 530,70 376.667,70 223.333,70 70,70 146.667,223.333" fill="none" stroke="#58a6ff" stroke-width="1.5" opacity="0.7"/><circle cx="300" cy="530" r="9" fill="#f0c674" stroke="#0b0e14" stroke-width="1" opacity="1"/><circle cx="223.333" cy="376.667" r="9" fill="#f0c674" stroke="#0b0e14" stroke-width="1" opacity="1"/><circle cx="376.667" cy="376.667" r="9" fill="#f0c674" stroke="#0b0e14" stroke-width="1" opacity="1"/><circle cx="146.667" cy="223.333" r="9" fill="#f0c674" stroke="#0b0e14" stroke-width="1" opacity="1"/><circle cx="300" cy="223.333" r="9" fill="#f0c674" stroke="#0b0e14" stroke-width="1" opacity="1"/><circle cx="453.333" cy="223.333" r="9" fill="#f0c674" stroke="#0b0e14" stroke-width="1" opacity="1"/><circle cx="70" cy="70" r="9" fill="#f0c674" stroke="#0b0e14" stroke-width="1" opacity="1"/><circle cx="223.333" cy="70" r="9" fill="#f0c674" stroke="#0b0e14" stroke-width="1" opacity="1"/><circle cx="376.667" cy="70" r="9" fill="#f0c674" stroke="#0b0e14" stroke-width="1" opacity="1"/><circle cx="530" cy="70" r="9" fill="#f0c674" stroke="#0b0e14" stroke-width="1" opacity="1"/><text x="300" y="576" font-size="15" fill="#e6edf3" text-anchor="middle" font-family="monospace">decuplet 10  (Dynkin 3,0)  dim 10</text><text x="300" y="592" font-size="10" fill="#8b949e" text-anchor="middle" font-family="monospace">su(3) weight diagram — 2D projection of representation space</text></svg>
