<svg xmlns="http://www.w3.org/2000/svg" width="600" height="600" viewBox="0 0 600 600"><rect width="600" height="600" fill="#0b0e14"/><line x1="300" y1="300" x2="185" y2="366.395" stroke="#58a6ff" stroke-width="1.2" opacity="0.5"/><circle cx="185" cy="366.395" r="6" fill="#f0c674" stroke="#0b0e14" stroke-width="1" opacity="1"/><line x1="300" y1="300" x2="185" y2="499.186" stroke="#58a6ff" stroke-width="1.2" opacity="0.5"/><circle cx="185" cy="499.186" r="6" fill="#f0c674" stroke="#0b0e14" stroke-width="1" opacity="1"/><line x1="300" y1="300" x2="300" y2="432.791" stroke="#58a6ff" stroke-width="1.2" opacity="0.5"/><circle cx="300" cy="432.791" r="6" fill="#f0c674" stroke="#0b0e14" stroke-width="1" opacity="1"/><line x1="300" y1="300" x2="415" y2="499.186" stroke="#58a6ff" stroke-width="1.2" opacity="0.5"/><circle cx="415" cy="499.186" r="6" fill="#f0c674" stroke="#0b0e14" stroke-width="1" opacity="1"/><line x1="300" y1="300" x2="415" y2="366.395" stroke="#58a6ff" stroke-width="1.2" opacity="0.5"/><circle cx="415" cy="366.395" r="6" fill="#f0c674" stroke="#0b0e14" stroke-width="1" opacity="1"/><line x1="300" y1="300" x2="530" y2="300" stroke="#58a6ff" stroke-width="1.2" opacity="0.5"/><circle cx="530" cy="300" r="6" fill="#f0c674" stroke="#0b0e14" stroke-width="1" opacity="1"/><line x1="300" y1="300" x2="415" y2="233.605" stroke="#58a6ff" stroke-width="1.2" opacity="0.5"/><circle cx="415" cy="233.605" r="6" fill="#f0c674" stroke="#0b0e14" stroke-width="1" opacity="1"/><line x1="300" y1="300" x2="415" y2="100.814" stroke="#58a6ff" stroke-width="1.2" opacity="0.5"/><circle cx="415" cy="100.814" r="6" fill="#f0c674" stroke="#0b0e14" stroke-width="1" opacity="1"/><line x1="300" y1="300" x2="300" y2="167.209" stroke="#58a6ff" stroke-width="1.2" opacity="0.5"/><circle cx="300" cy="167.209" r="6" fill="#f0c674" stroke="#0b0e14" stroke-width="1" opacity="1"/><line x1="300" y1="300" x2="185" y2="100.814" stroke="#58a6ff" stroke-width="1.2" opacity="0.5"/><circle cx="185" cy="100.814" r="6" fill="#f0c674" stroke="#0b0e14" stroke-width="1" opacity="1"/><line x1="300" y1="300" x2="185" y2="233.605" stroke="#58a6ff" stroke-width="1.2" opacity="0.5"/><circle cx="185" cy="233.605" r="6" fill="#f0c674" stroke="#0b0e14" stroke-width="1" opacity="1"/><line x1="300" y1="300" x2="70" y2="300" stroke="#58a6ff" stroke-width="1.2" opacity="0.5"/><circle cx="70" cy="300" r="6" fill="#f0c674" stroke="#0b0e14" stroke-width="1" opacity="1"/><circle cx="300" cy="300" r="4" fill="#e6edf3" stroke="none" stroke-width="0" opacity="1"/><text x="300" y="580" font-size="15" fill="#e6edf3" text-anchor="middle" font-family="monospace">su(4) root system (A3) — 12 roots, 2D projection</text></svg>
