<svg xmlns="http://www.w3.org/2000/svg" width="480" height="480" viewBox="0 0 480 480"><rect width="480" height="480" fill="#0b0e14"/><line x1="60" y1="420" x2="420" y2="420" stroke="#30363d" stroke-width="1" opacity="1"/><line x1="60" y1="60" x2="60" y2="420" stroke="#30363d" stroke-width="1" opacity="1"/><polyline points="60,420 61.809,391.22 63.618,379.328 65.427,370.221 67.236,362.56 69.045,355.824 70.854,349.747 72.663,344.17 74.472,338.99 76.281,334.134 78.09,329.551 79.899,325.201 81.709,321.053 83.518,317.082 85.327,313.27 87.136,309.598 88.945,306.055 90.754,302.627 92.563,299.306 94.372,296.082 96.181,292.948 97.99,289.898 99.799,286.925 101.608,284.025 103.417,281.194 105.226,278.426 107.035,275.718 108.844,273.068 110.653,270.471 112.462,267.925 114.271,265.428 116.08,262.977 117.889,260.57 119.698,258.204 121.508,255.879 123.317,253.593 125.126,251.343 126.935,249.129 128.744,246.949 130.553,244.801 132.362,242.685 134.171,240.6 135.98,238.544 137.789,236.516 139.598,234.515 141.407,232.541 143.216,230.592 145.025,228.668 146.834,226.769 148.643,224.892 150.452,223.038 152.261,221.206 154.07,219.396 155.879,217.606 157.688,215.837 159.497,214.087 161.307,212.356 163.116,210.645 164.925,208.951 166.734,207.275 168.543,205.616 170.352,203.974 172.161,202.349 173.97,200.74 175.779,199.146 177.588,197.568 179.397,196.005 181.206,194.457 183.015,192.923 184.824,191.403 186.633,189.897 188.442,188.404 190.251,186.925 192.06,185.459 193.869,184.005 195.678,182.564 197.487,181.136 199.296,179.719 201.106,178.314 202.915,176.92 204.724,175.538 206.533,174.167 208.342,172.808 210.151,171.458 211.96,170.12 213.769,168.792 215.578,167.474 217.387,166.166 219.196,164.867 221.005,163.579 222.814,162.3 224.623,161.031 226.432,159.771 228.241,158.52 230.05,157.278 231.859,156.045 233.668,154.82 235.477,153.604 237.286,152.397 239.095,151.197 240.905,150.007 242.714,148.824 244.523,147.649 246.332,146.482 248.141,145.322 249.95,144.171 251.759,143.026 253.568,141.89 255.377,140.76 257.186,139.638 258.995,138.523 260.804,137.415 262.613,136.314 264.422,135.219 266.231,134.132 268.04,133.051 269.849,131.977 271.658,130.909 273.467,129.848 275.276,128.793 277.085,127.744 278.894,126.702 280.704,125.665 282.513,124.635 284.322,123.611 286.131,122.592 287.94,121.58 289.749,120.573 291.558,119.572 293.367,118.576 295.176,117.586 296.985,116.602 298.794,115.623 300.603,114.65 302.412,113.681 304.221,112.718 306.03,111.761 307.839,110.808 309.648,109.861 311.457,108.918 313.266,107.981 315.075,107.049 316.884,106.121 318.693,105.198 320.503,104.28 322.312,103.367 324.121,102.459 325.93,101.555 327.739,100.656 329.548,99.761 331.357,98.871 333.166,97.985 334.975,97.104 336.784,96.227 338.593,95.354 340.402,94.486 342.211,93.622 344.02,92.762 345.829,91.907 347.638,91.055 349.447,90.208 351.256,89.364 353.065,88.525 354.874,87.69 356.683,86.858 358.492,86.031 360.302,85.207 362.111,84.388 363.92,83.572 365.729,82.759 367.538,81.951 369.347,81.146 371.156,80.345 372.965,79.548 374.774,78.754 376.583,77.964 378.392,77.177 380.201,76.394 382.01,75.614 383.819,74.838 385.628,74.066 387.437,73.296 389.246,72.53 391.055,71.768 392.864,71.008 394.673,70.252 396.482,69.5 398.291,68.75 400.101,68.004 401.91,67.261 403.719,66.521 405.528,65.784 407.337,65.05 409.146,64.32 410.955,63.592 412.764,62.868 414.573,62.146 416.382,61.428 418.191,60.713 420,60" fill="none" stroke="#7ee787" stroke-width="2" opacity="1"/><text x="240" y="26" font-size="14" fill="#e6edf3" text-anchor="middle" font-family="monospace">Cherenkov angle vs beta  (n=1.33)</text><text x="240" y="460" font-size="11" fill="#8b949e" text-anchor="middle" font-family="monospace">beta from threshold 1/n -&gt; 1   (theta_c grows)</text></svg>
