<svg xmlns="http://www.w3.org/2000/svg" width="520" height="520" viewBox="0 0 520 520"><rect width="520" height="520" fill="#0b0e14"/><polyline points="368.979,260 367.971,234.657 364.952,209.474 359.942,184.611 352.973,160.224 344.088,136.469 333.344,113.494 320.808,91.445 306.56,70.462 290.69,50.678 273.299,32.216 254.496,15.195 234.399,-0.278 213.137,-14.106 190.844,-26.201 167.66,-36.486 143.732,-44.897 119.212,-51.38 94.254,-55.895 69.016,-58.412 43.658,-58.916 18.34,-57.404 -6.778,-53.885 -31.536,-48.382 -55.78,-40.929 -79.354,-31.574 -102.111,-20.375 -123.906,-7.403 -144.601,7.259 -164.066,23.519 -182.178,41.274 -198.822,60.412 -213.893,80.812 -227.295,102.345 -238.944,124.874 -248.767,148.258 -256.7,172.348 -262.695,196.993 -266.712,222.036 -268.727,247.318 -268.727,272.682 -266.712,297.964 -262.695,323.007 -256.7,347.652 -248.767,371.742 -238.944,395.126 -227.295,417.655 -213.893,439.188 -198.822,459.588 -182.178,478.726 -164.066,496.481 -144.601,512.741 -123.906,527.403 -102.111,540.375 -79.354,551.574 -55.78,560.929 -31.536,568.382 -6.778,573.885 18.34,577.404 43.658,578.916 69.016,578.412 94.254,575.895 119.212,571.38 143.732,564.897 167.66,556.486 190.844,546.201 213.137,534.106 234.399,520.278 254.496,504.805 273.299,487.784 290.69,469.322 306.56,449.538 320.808,428.555 333.344,406.506 344.088,383.531 352.973,359.776 359.942,335.389 364.952,310.526 367.971,285.343 368.979,260" fill="none" stroke="#58a6ff" stroke-width="0.8" opacity="0.5"/><polyline points="371.711,260 370.747,235.759 367.859,211.671 363.067,187.889 356.401,164.562 347.902,141.839 337.625,119.864 325.635,98.774 312.006,78.703 296.826,59.779 280.191,42.12 262.205,25.839 242.983,11.038 222.645,-2.188 201.321,-13.757 179.145,-23.595 156.258,-31.64 132.803,-37.842 108.93,-42.16 84.79,-44.568 60.535,-45.05 36.317,-43.604 12.292,-40.238 -11.391,-34.974 -34.58,-27.845 -57.129,-18.897 -78.897,-8.185 -99.744,4.223 -119.54,18.248 -138.158,33.801 -155.483,50.784 -171.403,69.09 -185.818,88.603 -198.638,109.199 -209.781,130.749 -219.176,153.116 -226.765,176.159 -232.498,199.732 -236.341,223.686 -238.269,247.87 -238.269,272.13 -236.341,296.314 -232.498,320.268 -226.765,343.841 -219.176,366.884 -209.781,389.251 -198.638,410.801 -185.818,431.397 -171.403,450.91 -155.483,469.216 -138.158,486.199 -119.54,501.752 -99.744,515.777 -78.897,528.185 -57.129,538.897 -34.58,547.845 -11.391,554.974 12.292,560.238 36.317,563.604 60.535,565.05 84.79,564.568 108.93,562.16 132.803,557.842 156.258,551.64 179.145,543.595 201.321,533.757 222.645,522.188 242.983,508.962 262.205,494.161 280.191,477.88 296.826,460.221 312.006,441.297 325.635,421.226 337.625,400.136 347.902,378.161 356.401,355.438 363.067,332.111 367.859,308.329 370.747,284.241 371.711,260" fill="none" stroke="#58a6ff" stroke-width="0.8" opacity="0.5"/><polyline points="374.444,260 373.523,236.861 370.767,213.868 366.192,191.167 359.829,168.901 351.717,147.21 341.907,126.233 330.461,106.102 317.452,86.944 302.962,68.88 287.083,52.024 269.915,36.483 251.566,22.355 232.153,9.729 211.798,-1.314 190.63,-10.705 168.783,-18.384 146.395,-24.303 123.607,-28.425 100.564,-30.724 77.411,-31.184 54.295,-29.804 31.361,-26.591 8.755,-21.566 -13.38,-14.762 -34.904,-6.22 -55.682,4.006 -75.582,15.849 -94.478,29.236 -112.25,44.082 -128.787,60.294 -143.984,77.768 -157.744,96.394 -169.981,116.054 -180.617,136.624 -189.585,157.975 -196.829,179.97 -202.302,202.472 -205.97,225.337 -207.81,248.421 -207.81,271.579 -205.97,294.663 -202.302,317.528 -196.829,340.03 -189.585,362.025 -180.617,383.376 -169.981,403.946 -157.744,423.606 -143.984,442.232 -128.787,459.706 -112.25,475.918 -94.478,490.764 -75.582,504.151 -55.682,515.994 -34.904,526.22 -13.38,534.762 8.755,541.566 31.361,546.591 54.295,549.804 77.411,551.184 100.564,550.724 123.607,548.425 146.395,544.303 168.783,538.384 190.63,530.705 211.798,521.314 232.153,510.271 251.566,497.645 269.915,483.517 287.083,467.976 302.962,451.12 317.452,433.056 330.461,413.898 341.907,393.767 351.717,372.79 359.829,351.099 366.192,328.833 370.767,306.132 373.523,283.139 374.444,260" fill="none" stroke="#58a6ff" stroke-width="0.8" opacity="0.5"/><polyline points="377.176,260 376.299,237.963 373.674,216.065 369.317,194.444 363.257,173.239 355.531,152.581 346.188,132.603 335.288,113.431 322.898,95.185 309.098,77.981 293.975,61.927 277.625,47.126 260.15,33.671 241.661,21.647 222.275,11.13 202.115,2.186 181.309,-5.128 159.986,-10.765 138.284,-14.691 116.338,-16.88 94.288,-17.318 72.272,-16.004 50.431,-12.944 28.901,-8.158 7.82,-1.678 -12.68,6.458 -32.468,16.196 -51.42,27.475 -69.416,40.225 -86.342,54.364 -102.092,69.804 -116.565,86.445 -129.67,104.184 -141.324,122.908 -151.454,142.499 -159.995,162.833 -166.893,183.781 -172.106,205.211 -175.599,226.988 -177.352,248.973 -177.352,271.027 -175.599,293.012 -172.106,314.789 -166.893,336.219 -159.995,357.167 -151.454,377.501 -141.324,397.092 -129.67,415.816 -116.565,433.555 -102.092,450.196 -86.342,465.636 -69.416,479.775 -51.42,492.525 -32.468,503.804 -12.68,513.542 7.82,521.678 28.901,528.158 50.431,532.944 72.272,536.004 94.288,537.318 116.338,536.88 138.284,534.691 159.986,530.765 181.309,525.128 202.115,517.814 222.275,508.87 241.661,498.353 260.15,486.329 277.625,472.874 293.975,458.073 309.098,442.019 322.898,424.815 335.288,406.569 346.188,387.397 355.531,367.419 363.257,346.761 369.317,325.556 373.674,303.935 376.299,282.037 377.176,260" fill="none" stroke="#58a6ff" stroke-width="0.8" opacity="0.5"/><polyline points="379.908,260 379.075,239.065 376.581,218.261 372.443,197.722 366.685,177.577 359.345,157.952 350.47,138.973 340.114,120.759 328.344,103.425 315.234,87.081 300.867,71.831 285.334,57.77 268.733,44.988 251.169,33.565 232.752,23.573 213.601,15.077 193.834,8.129 173.578,2.773 152.961,-0.956 132.112,-3.036 111.164,-3.453 90.249,-2.203 69.5,0.703 49.047,5.249 29.02,11.406 9.545,19.135 -9.254,28.386 -27.258,39.102 -44.354,51.214 -60.434,64.646 -75.396,79.313 -89.146,95.123 -101.595,111.975 -112.667,129.763 -122.29,148.374 -130.404,167.691 -136.958,187.592 -141.91,207.951 -145.228,228.638 -146.893,249.524 -146.893,270.476 -145.228,291.362 -141.91,312.049 -136.958,332.408 -130.404,352.309 -122.29,371.626 -112.667,390.237 -101.595,408.025 -89.146,424.877 -75.396,440.687 -60.434,455.354 -44.354,468.786 -27.258,480.898 -9.254,491.614 9.545,500.865 29.02,508.594 49.047,514.751 69.5,519.297 90.249,522.203 111.164,523.453 132.112,523.036 152.961,520.956 173.578,517.227 193.834,511.871 213.601,504.923 232.752,496.427 251.169,486.435 268.733,475.012 285.334,462.23 300.867,448.169 315.234,432.919 328.344,416.575 340.114,399.241 350.47,381.027 359.345,362.048 366.685,342.423 372.443,322.278 376.581,301.739 379.075,280.935 379.908,260" fill="none" stroke="#58a6ff" stroke-width="0.8" opacity="0.5"/><polyline points="382.64,260 381.851,240.166 379.488,220.458 375.568,201 370.113,181.915 363.16,163.323 354.751,145.343 344.941,128.087 333.79,111.666 321.37,96.182 307.76,81.735 293.044,68.414 277.316,56.304 260.677,45.482 243.23,36.017 225.086,27.968 206.36,21.385 187.17,16.311 167.637,12.778 147.886,10.808 128.041,10.413 108.227,11.597 88.569,14.351 69.193,18.657 50.22,24.49 31.77,31.812 13.961,40.576 -3.096,50.728 -19.293,62.203 -34.526,74.928 -48.701,88.823 -61.726,103.801 -73.521,119.766 -84.01,136.618 -93.126,154.249 -100.813,172.55 -107.022,191.403 -111.714,210.69 -114.858,230.289 -116.435,250.075 -116.435,269.925 -114.858,289.711 -111.714,309.31 -107.022,328.597 -100.813,347.45 -93.126,365.751 -84.01,383.382 -73.521,400.234 -61.726,416.199 -48.701,431.177 -34.526,445.072 -19.293,457.797 -3.096,469.272 13.961,479.424 31.77,488.188 50.22,495.51 69.193,501.343 88.569,505.649 108.227,508.403 128.041,509.587 147.886,509.192 167.637,507.222 187.17,503.689 206.36,498.615 225.086,492.032 243.23,483.983 260.677,474.518 277.316,463.696 293.044,451.586 307.76,438.265 321.37,423.818 333.79,408.334 344.941,391.913 354.751,374.657 363.16,356.677 370.113,338.085 375.568,319 379.488,299.542 381.851,279.834 382.64,260" fill="none" stroke="#58a6ff" stroke-width="0.8" opacity="0.5"/><polyline points="385.372,260 384.627,241.268 382.396,222.655 378.693,204.278 373.541,186.253 366.974,168.694 359.033,151.713 349.767,135.416 339.236,119.907 327.506,105.283 314.652,91.638 300.754,79.057 285.9,67.621 270.184,57.4 253.707,48.46 236.571,40.858 218.885,34.641 200.761,29.85 182.314,26.513 163.66,24.652 144.917,24.279 126.204,25.397 107.639,27.998 89.339,32.065 71.42,37.574 53.995,44.489 37.175,52.766 21.066,62.354 5.769,73.191 -8.618,85.21 -22.005,98.333 -34.307,112.479 -45.446,127.557 -55.353,143.472 -63.963,160.124 -71.223,177.408 -77.087,195.214 -81.517,213.43 -84.487,231.939 -85.976,250.627 -85.976,269.373 -84.487,288.061 -81.517,306.57 -77.087,324.786 -71.223,342.592 -63.963,359.876 -55.353,376.528 -45.446,392.443 -34.307,407.521 -22.005,421.667 -8.618,434.79 5.769,446.809 21.066,457.646 37.175,467.234 53.995,475.511 71.42,482.426 89.339,487.935 107.639,492.002 126.204,494.603 144.917,495.721 163.66,495.348 182.314,493.487 200.761,490.15 218.885,485.359 236.571,479.142 253.707,471.54 270.184,462.6 285.9,452.379 300.754,440.943 314.652,428.362 327.506,414.717 339.236,400.093 349.767,384.584 359.033,368.287 366.974,351.306 373.541,333.747 378.693,315.722 382.396,297.345 384.627,278.732 385.372,260" fill="none" stroke="#58a6ff" stroke-width="0.8" opacity="0.5"/><polyline points="388.104,260 387.403,242.37 385.303,224.852 381.818,207.555 376.969,190.591 370.788,174.065 363.314,158.083 354.594,142.744 344.682,128.148 333.642,114.384 321.544,101.542 308.463,89.701 294.483,78.937 279.692,69.318 264.184,60.904 248.056,53.749 231.411,47.898 214.353,43.388 196.991,40.247 179.434,38.496 161.794,38.145 144.181,39.197 126.708,41.645 109.485,45.473 92.62,50.658 76.22,57.166 60.389,64.957 45.228,73.98 30.831,84.18 17.29,95.491 4.69,107.843 -6.888,121.156 -17.372,135.347 -26.695,150.327 -34.799,165.999 -41.632,182.267 -47.151,199.025 -51.321,216.169 -54.116,233.59 -55.518,251.178 -55.518,268.822 -54.116,286.41 -51.321,303.831 -47.151,320.975 -41.632,337.733 -34.799,354.001 -26.695,369.673 -17.372,384.653 -6.888,398.844 4.69,412.157 17.29,424.509 30.831,435.82 45.228,446.02 60.389,455.043 76.22,462.834 92.62,469.342 109.485,474.527 126.708,478.355 144.181,480.803 161.794,481.855 179.434,481.504 196.991,479.753 214.353,476.612 231.411,472.102 248.056,466.251 264.184,459.096 279.692,450.682 294.483,441.063 308.463,430.299 321.544,418.458 333.642,405.616 344.682,391.852 354.594,377.256 363.314,361.917 370.788,345.935 376.969,329.409 381.818,312.445 385.303,295.148 387.403,277.63 388.104,260" fill="none" stroke="#58a6ff" stroke-width="0.8" opacity="0.5"/><polyline points="390.836,260 390.179,243.472 388.21,227.048 384.943,210.833 380.397,194.929 374.603,179.436 367.596,164.452 359.42,150.073 350.128,136.388 339.778,123.485 328.436,111.445 316.173,100.345 303.067,90.253 289.2,81.235 274.661,73.347 259.541,66.64 243.936,61.154 227.944,56.926 211.667,53.982 195.208,52.34 178.67,52.011 162.159,52.997 145.777,55.292 129.63,58.881 113.82,63.742 98.445,69.843 83.604,77.147 69.389,85.607 55.892,95.169 43.198,105.773 31.386,117.353 20.531,129.834 10.702,143.138 1.962,157.181 -5.636,171.875 -12.042,187.125 -17.215,202.836 -21.125,218.908 -23.745,235.241 -25.059,251.729 -25.059,268.271 -23.745,284.759 -21.125,301.092 -17.215,317.164 -12.042,332.875 -5.636,348.125 1.962,362.819 10.702,376.862 20.531,390.166 31.386,402.647 43.198,414.227 55.892,424.831 69.389,434.393 83.604,442.853 98.445,450.157 113.82,456.258 129.63,461.119 145.777,464.708 162.159,467.003 178.67,467.989 195.208,467.66 211.667,466.018 227.944,463.074 243.936,458.846 259.541,453.36 274.661,446.653 289.2,438.765 303.067,429.747 316.173,419.655 328.436,408.555 339.778,396.515 350.128,383.612 359.42,369.927 367.596,355.548 374.603,340.564 380.397,325.071 384.943,309.167 388.21,292.952 390.179,276.528 390.836,260" fill="none" stroke="#58a6ff" stroke-width="0.8" opacity="0.5"/><polyline points="393.568,260 392.955,244.574 391.117,229.245 388.068,214.111 383.825,199.267 378.417,184.807 371.877,170.822 364.247,157.401 355.574,144.629 345.914,132.586 335.328,121.349 323.883,110.988 311.65,101.57 298.708,93.153 285.138,85.791 271.026,79.53 256.461,74.411 241.536,70.464 226.344,67.716 210.982,66.184 195.547,65.877 180.136,66.797 164.847,68.939 149.776,72.289 135.019,76.826 120.67,82.52 106.818,89.337 93.551,97.233 80.954,106.158 69.106,116.055 58.081,126.862 47.95,138.512 38.777,150.929 30.619,164.036 23.528,177.75 17.549,191.983 12.72,206.647 9.071,221.648 6.626,236.891 5.399,252.281 5.399,267.719 6.626,283.109 9.071,298.352 12.72,313.353 17.549,328.017 23.528,342.25 30.619,355.964 38.777,369.071 47.95,381.488 58.081,393.138 69.106,403.945 80.954,413.842 93.551,422.767 106.818,430.663 120.67,437.48 135.019,443.174 149.776,447.711 164.847,451.061 180.136,453.203 195.547,454.123 210.982,453.816 226.344,452.284 241.536,449.536 256.461,445.589 271.026,440.47 285.138,434.209 298.708,426.847 311.65,418.43 323.883,409.012 335.328,398.651 345.914,387.414 355.574,375.371 364.247,362.599 371.877,349.178 378.417,335.193 383.825,320.733 388.068,305.889 391.117,290.755 392.955,275.426 393.568,260" fill="none" stroke="#58a6ff" stroke-width="0.8" opacity="0.5"/><polyline points="396.301,260 395.731,245.676 394.024,231.442 391.193,217.389 387.253,203.605 382.232,190.178 376.159,177.192 369.073,164.73 361.02,152.87 352.05,141.687 342.22,131.253 331.592,121.632 320.234,112.886 308.216,105.071 295.615,98.234 282.511,92.421 268.987,87.667 255.128,84.003 241.021,81.451 226.756,80.028 212.423,79.743 198.113,80.598 183.916,82.586 169.922,85.697 156.219,89.91 142.895,95.197 130.032,101.527 117.713,108.859 106.016,117.146 95.014,126.337 84.777,136.372 75.369,147.189 66.851,158.72 59.276,170.891 52.692,183.625 47.14,196.842 42.656,210.458 39.268,224.387 36.997,238.542 35.858,252.832 35.858,267.168 36.997,281.458 39.268,295.613 42.656,309.542 47.14,323.158 52.692,336.375 59.276,349.109 66.851,361.28 75.369,372.811 84.777,383.628 95.014,393.663 106.016,402.854 117.713,411.141 130.032,418.473 142.895,424.803 156.219,430.09 169.922,434.303 183.916,437.414 198.113,439.402 212.423,440.257 226.756,439.972 241.021,438.549 255.128,435.997 268.987,432.333 282.511,427.579 295.615,421.766 308.216,414.929 320.234,407.114 331.592,398.368 342.22,388.747 352.05,378.313 361.02,367.13 369.073,355.27 376.159,342.808 382.232,329.822 387.253,316.395 391.193,302.611 394.024,288.558 395.731,274.324 396.301,260" fill="none" stroke="#58a6ff" stroke-width="0.8" opacity="0.5"/><polyline points="399.033,260 398.507,246.778 396.932,233.639 394.318,220.667 390.682,207.943 386.046,195.549 380.44,183.562 373.9,172.058 366.466,161.111 358.186,150.788 349.112,141.156 339.302,132.276 328.817,124.203 317.724,116.988 306.092,110.678 293.996,105.312 281.512,100.923 268.719,97.541 255.698,95.185 242.53,93.872 229.3,93.609 216.09,94.398 202.986,96.234 190.068,99.105 177.419,102.993 165.12,107.875 153.247,113.717 141.875,120.485 131.078,128.135 120.922,136.619 111.472,145.882 102.788,155.867 94.925,166.511 87.933,177.745 81.855,189.5 76.73,201.7 72.591,214.269 69.464,227.127 67.368,240.193 66.316,253.384 66.316,266.616 67.368,279.807 69.464,292.873 72.591,305.731 76.73,318.3 81.855,330.5 87.933,342.255 94.925,353.489 102.788,364.133 111.472,374.118 120.922,383.381 131.078,391.865 141.875,399.515 153.247,406.283 165.12,412.125 177.419,417.007 190.068,420.895 202.986,423.766 216.09,425.602 229.3,426.391 242.53,426.128 255.698,424.815 268.719,422.459 281.512,419.077 293.996,414.688 306.092,409.322 317.724,403.012 328.817,395.797 339.302,387.724 349.112,378.844 358.186,369.212 366.466,358.889 373.9,347.942 380.44,336.438 386.046,324.451 390.682,312.057 394.318,299.333 396.932,286.361 398.507,273.222 399.033,260" fill="none" stroke="#58a6ff" stroke-width="0.8" opacity="0.5"/><polyline points="401.765,260 401.283,247.879 399.839,235.836 397.443,223.944 394.11,212.281 389.86,200.92 384.722,189.932 378.726,179.387 371.912,169.351 364.322,159.889 356.005,151.06 347.012,142.92 337.4,135.519 327.232,128.906 316.57,123.121 305.482,118.202 294.038,114.18 282.311,111.079 270.374,108.92 258.304,107.716 246.176,107.475 234.068,108.198 222.055,109.881 210.214,112.513 198.619,116.077 187.344,120.552 176.461,125.908 166.037,132.111 156.139,139.124 146.83,146.9 138.168,155.392 130.208,164.545 123,174.301 116.59,184.6 111.019,195.375 106.321,206.558 102.527,218.08 99.66,229.866 97.739,241.843 96.775,253.935 96.775,266.065 97.739,278.157 99.66,290.134 102.527,301.92 106.321,313.442 111.019,324.625 116.59,335.4 123,345.699 130.208,355.455 138.168,364.608 146.83,373.1 156.139,380.876 166.037,387.889 176.461,394.092 187.344,399.448 198.619,403.923 210.214,407.487 222.055,410.119 234.068,411.802 246.176,412.525 258.304,412.284 270.374,411.08 282.311,408.921 294.038,405.82 305.482,401.798 316.57,396.879 327.232,391.094 337.4,384.481 347.012,377.08 356.005,368.94 364.322,360.111 371.912,350.649 378.726,340.613 384.722,330.068 389.86,319.08 394.11,307.719 397.443,296.056 399.839,284.164 401.283,272.121 401.765,260" fill="none" stroke="#58a6ff" stroke-width="0.8" opacity="0.5"/><polyline points="404.497,260 404.059,248.981 402.746,238.032 400.568,227.222 397.538,216.619 393.675,206.291 389.003,196.302 383.553,186.715 377.358,177.592 370.458,168.99 362.897,160.964 354.721,153.563 345.984,146.836 336.74,140.824 327.047,135.565 316.967,131.093 306.563,127.436 295.902,124.617 285.051,122.655 274.078,121.56 263.053,121.341 252.045,121.998 241.124,123.528 230.36,125.921 219.819,129.161 209.569,133.229 199.675,138.098 190.199,143.738 181.201,150.113 172.738,157.182 164.863,164.902 157.627,173.223 151.074,182.092 145.247,191.454 140.182,201.25 135.912,211.417 132.462,221.891 129.856,232.606 128.109,243.494 127.233,254.486 127.233,265.514 128.109,276.506 129.856,287.394 132.462,298.109 135.912,308.583 140.182,318.75 145.247,328.546 151.074,337.908 157.627,346.777 164.863,355.098 172.738,362.818 181.201,369.887 190.199,376.262 199.675,381.902 209.569,386.771 219.819,390.839 230.36,394.079 241.124,396.472 252.045,398.002 263.053,398.659 274.078,398.44 285.051,397.345 295.902,395.383 306.563,392.564 316.967,388.907 327.047,384.435 336.74,379.176 345.984,373.164 354.721,366.437 362.897,359.036 370.458,351.01 377.358,342.408 383.553,333.285 389.003,323.698 393.675,313.709 397.538,303.381 400.568,292.778 402.746,281.968 404.059,271.019 404.497,260" fill="none" stroke="#58a6ff" stroke-width="0.8" opacity="0.5"/><polyline points="407.229,260 406.834,250.083 405.653,240.229 403.693,230.5 400.966,220.957 397.489,211.662 393.285,202.671 388.379,194.044 382.804,185.833 376.594,178.091 369.789,170.867 362.431,164.207 354.567,158.152 346.247,152.741 337.524,148.008 328.452,143.984 319.089,140.693 309.494,138.156 299.728,136.389 289.852,135.404 279.929,135.207 270.022,135.798 260.194,137.175 250.506,139.329 241.019,142.245 231.794,145.906 222.889,150.288 214.361,155.364 206.263,161.101 198.646,167.464 191.559,174.412 185.046,181.9 179.149,189.883 173.904,198.309 169.346,207.125 165.502,216.275 162.398,225.702 160.052,235.345 158.48,245.144 157.692,255.038 157.692,264.962 158.48,274.856 160.052,284.655 162.398,294.298 165.502,303.725 169.346,312.875 173.904,321.691 179.149,330.117 185.046,338.1 191.559,345.588 198.646,352.536 206.263,358.899 214.361,364.636 222.889,369.712 231.794,374.094 241.019,377.755 250.506,380.671 260.194,382.825 270.022,384.202 279.929,384.793 289.852,384.596 299.728,383.611 309.494,381.844 319.089,379.307 328.452,376.016 337.524,371.992 346.247,367.259 354.567,361.848 362.431,355.793 369.789,349.133 376.594,341.909 382.804,334.167 388.379,325.956 393.285,317.329 397.489,308.338 400.966,299.043 403.693,289.5 405.653,279.771 406.834,269.917 407.229,260" fill="none" stroke="#58a6ff" stroke-width="0.8" opacity="0.5"/><polyline points="409.961,260 409.61,251.185 408.56,242.426 406.818,233.778 404.394,225.295 401.303,217.033 397.566,209.041 393.206,201.372 388.25,194.074 382.73,187.192 376.681,180.771 370.141,174.851 363.151,169.469 355.755,164.659 348.001,160.452 339.937,156.874 331.614,153.949 323.086,151.694 314.404,150.124 305.626,149.248 296.806,149.073 288,149.599 279.263,150.822 270.651,152.737 262.219,155.329 254.019,158.583 246.104,162.478 238.523,166.99 231.324,172.09 224.554,177.746 218.254,183.921 212.465,190.578 207.223,197.674 202.561,205.163 198.509,213 195.093,221.133 192.334,229.512 190.249,238.084 188.851,246.795 188.15,255.589 188.15,264.411 188.851,273.205 190.249,281.916 192.334,290.488 195.093,298.867 198.509,307 202.561,314.837 207.223,322.326 212.465,329.422 218.254,336.079 224.554,342.254 231.324,347.91 238.523,353.01 246.104,357.522 254.019,361.417 262.219,364.671 270.651,367.263 279.263,369.178 288,370.401 296.806,370.927 305.626,370.752 314.404,369.876 323.086,368.306 331.614,366.051 339.937,363.126 348.001,359.548 355.755,355.341 363.151,350.531 370.141,345.149 376.681,339.229 382.73,332.808 388.25,325.926 393.206,318.628 397.566,310.959 401.303,302.967 404.394,294.705 406.818,286.222 408.56,277.574 409.61,268.815 409.961,260" fill="none" stroke="#58a6ff" stroke-width="0.8" opacity="0.5"/><polyline points="412.693,260 412.386,252.287 411.468,244.623 409.943,237.056 407.822,229.634 405.118,222.403 401.848,215.411 398.033,208.701 393.696,202.315 388.866,196.293 383.573,190.675 377.85,185.494 371.734,180.785 365.263,176.576 358.478,172.895 351.422,169.765 344.14,167.205 336.677,165.232 329.081,163.858 321.4,163.092 313.682,162.939 305.977,163.399 298.332,164.47 290.797,166.145 283.419,168.413 276.244,171.26 269.318,174.669 262.685,178.616 256.386,183.079 250.462,188.027 244.95,193.431 239.884,199.256 235.297,205.465 231.218,212.018 227.673,218.875 224.684,225.992 222.269,233.323 220.445,240.824 219.222,248.446 218.609,256.14 218.609,263.86 219.222,271.554 220.445,279.176 222.269,286.677 224.684,294.008 227.673,301.125 231.218,307.982 235.297,314.535 239.884,320.744 244.95,326.569 250.462,331.973 256.386,336.921 262.685,341.384 269.318,345.331 276.244,348.74 283.419,351.587 290.797,353.855 298.332,355.53 305.977,356.601 313.682,357.061 321.4,356.908 329.081,356.142 336.677,354.768 344.14,352.795 351.422,350.235 358.478,347.105 365.263,343.424 371.734,339.215 377.85,334.506 383.573,329.325 388.866,323.707 393.696,317.685 398.033,311.299 401.848,304.589 405.118,297.597 407.822,290.366 409.943,282.944 411.468,275.377 412.386,267.713 412.693,260" fill="none" stroke="#58a6ff" stroke-width="0.8" opacity="0.5"/><polyline points="415.425,260 415.162,253.389 414.375,246.819 413.068,240.333 411.25,233.972 408.932,227.774 406.129,221.781 402.859,216.029 399.142,210.555 395.002,205.394 390.465,200.578 385.56,196.138 380.318,192.101 374.771,188.494 368.955,185.339 362.907,182.656 356.665,180.462 350.269,178.77 343.758,177.593 337.174,176.936 330.559,176.804 323.954,177.199 317.402,178.117 310.943,179.552 304.619,181.497 298.469,183.937 292.532,186.859 286.847,190.243 281.448,194.068 276.37,198.309 271.645,202.941 267.303,207.934 263.372,213.255 259.876,218.873 256.837,224.75 254.274,230.85 252.205,237.134 250.641,243.563 249.593,250.096 249.067,256.692 249.067,263.308 249.593,269.904 250.641,276.437 252.205,282.866 254.274,289.15 256.837,295.25 259.876,301.127 263.372,306.745 267.303,312.066 271.645,317.059 276.37,321.691 281.448,325.932 286.847,329.757 292.532,333.141 298.469,336.063 304.619,338.503 310.943,340.448 317.402,341.883 323.954,342.801 330.559,343.196 337.174,343.064 343.758,342.407 350.269,341.23 356.665,339.538 362.907,337.344 368.955,334.661 374.771,331.506 380.318,327.899 385.56,323.862 390.465,319.422 395.002,314.606 399.142,309.445 402.859,303.971 406.129,298.219 408.932,292.226 411.25,286.028 413.068,279.667 414.375,273.181 415.162,266.611 415.425,260" fill="none" stroke="#58a6ff" stroke-width="0.8" opacity="0.5"/><polyline points="418.158,260 417.938,254.491 417.282,249.016 416.193,243.611 414.678,238.31 412.746,233.145 410.411,228.151 407.686,223.358 404.588,218.796 401.138,214.495 397.357,210.482 393.27,206.782 388.901,203.418 384.279,200.412 379.432,197.782 374.392,195.547 369.191,193.718 363.86,192.309 358.435,191.327 352.948,190.78 347.436,190.67 341.932,190.999 336.471,191.764 331.089,192.96 325.819,194.581 320.694,196.614 315.747,199.049 311.009,201.869 306.51,205.056 302.278,208.591 298.341,212.451 294.722,216.611 291.446,221.046 288.533,225.727 286,230.625 283.865,235.708 282.14,240.945 280.837,246.303 279.964,251.747 279.526,257.243 279.526,262.757 279.964,268.253 280.837,273.697 282.14,279.055 283.865,284.292 286,289.375 288.533,294.273 291.446,298.954 294.722,303.389 298.341,307.549 302.278,311.409 306.51,314.944 311.009,318.131 315.747,320.951 320.694,323.386 325.819,325.419 331.089,327.04 336.471,328.236 341.932,329.001 347.436,329.33 352.948,329.22 358.435,328.673 363.86,327.691 369.191,326.282 374.392,324.453 379.432,322.218 384.279,319.588 388.901,316.582 393.27,313.218 397.357,309.518 401.138,305.505 404.588,301.204 407.686,296.642 410.411,291.849 412.746,286.855 414.678,281.69 416.193,276.389 417.282,270.984 417.938,265.509 418.158,260" fill="none" stroke="#58a6ff" stroke-width="0.8" opacity="0.5"/><polyline points="420.89,260 420.714,255.593 420.189,251.213 419.318,246.889 418.106,242.648 416.561,238.516 414.692,234.521 412.512,230.686 410.034,227.037 407.274,223.596 404.25,220.385 400.979,217.425 397.484,214.734 393.787,212.329 389.91,210.226 385.878,208.437 381.716,206.974 377.452,205.847 373.111,205.062 368.722,204.624 364.312,204.536 359.909,204.799 355.541,205.411 351.235,206.368 347.019,207.664 342.919,209.292 338.961,211.239 335.171,213.495 331.571,216.045 328.186,218.873 325.036,221.961 322.142,225.289 319.521,228.837 317.19,232.582 315.164,236.5 313.456,240.567 312.076,244.756 311.033,249.042 310.335,253.398 309.984,257.795 309.984,262.205 310.335,266.602 311.033,270.958 312.076,275.244 313.456,279.433 315.164,283.5 317.19,287.418 319.521,291.163 322.142,294.711 325.036,298.039 328.186,301.127 331.571,303.955 335.171,306.505 338.961,308.761 342.919,310.708 347.019,312.336 351.235,313.632 355.541,314.589 359.909,315.201 364.312,315.464 368.722,315.376 373.111,314.938 377.452,314.153 381.716,313.026 385.878,311.563 389.91,309.774 393.787,307.671 397.484,305.266 400.979,302.575 404.25,299.615 407.274,296.404 410.034,292.963 412.512,289.314 414.692,285.479 416.561,281.484 418.106,277.352 419.318,273.111 420.189,268.787 420.714,264.407 420.89,260" fill="none" stroke="#58a6ff" stroke-width="0.8" opacity="0.5"/><polyline points="423.622,260 423.49,256.694 423.097,253.41 422.443,250.167 421.534,246.986 420.375,243.887 418.974,240.89 417.339,238.015 415.48,235.278 413.41,232.697 411.142,230.289 408.689,228.069 406.068,226.051 403.295,224.247 400.387,222.669 397.363,221.328 394.242,220.231 391.043,219.385 387.788,218.796 384.496,218.468 381.189,218.402 377.886,218.599 374.61,219.058 371.381,219.776 368.218,220.748 365.144,221.969 362.175,223.429 359.332,225.121 356.633,227.034 354.094,229.155 351.732,231.471 349.561,233.967 347.595,236.628 345.847,239.436 344.327,242.375 343.046,245.425 342.011,248.567 341.23,251.782 340.706,255.048 340.443,258.346 340.443,261.654 340.706,264.952 341.23,268.218 342.011,271.433 343.046,274.575 344.327,277.625 345.847,280.564 347.595,283.372 349.561,286.033 351.732,288.529 354.094,290.845 356.633,292.966 359.332,294.879 362.175,296.571 365.144,298.031 368.218,299.252 371.381,300.224 374.61,300.942 377.886,301.401 381.189,301.598 384.496,301.532 387.788,301.204 391.043,300.615 394.242,299.769 397.363,298.672 400.387,297.331 403.295,295.753 406.068,293.949 408.689,291.931 411.142,289.711 413.41,287.303 415.48,284.722 417.339,281.985 418.974,279.11 420.375,276.113 421.534,273.014 422.443,269.833 423.097,266.59 423.49,263.306 423.622,260" fill="none" stroke="#58a6ff" stroke-width="0.8" opacity="0.5"/><polyline points="426.354,260 426.266,257.796 426.004,255.606 425.568,253.444 424.962,251.324 424.189,249.258 423.255,247.26 422.165,245.343 420.926,243.518 419.546,241.798 418.034,240.193 416.399,238.713 414.651,237.367 412.802,236.165 410.864,235.113 408.848,234.219 406.767,233.487 404.635,232.923 402.465,232.531 400.27,232.312 398.065,232.268 395.864,232.4 393.679,232.706 391.526,233.184 389.418,233.832 387.368,234.646 385.39,235.62 383.494,236.748 381.695,238.023 380.002,239.436 378.427,240.98 376.98,242.645 375.669,244.418 374.504,246.291 373.491,248.25 372.637,250.283 371.947,252.378 371.426,254.521 371.076,256.699 370.901,258.897 370.901,261.103 371.076,263.301 371.426,265.479 371.947,267.622 372.637,269.717 373.491,271.75 374.504,273.709 375.669,275.582 376.98,277.355 378.427,279.02 380.002,280.564 381.695,281.977 383.494,283.252 385.39,284.38 387.368,285.354 389.418,286.168 391.526,286.816 393.679,287.294 395.864,287.6 398.065,287.732 400.27,287.688 402.465,287.469 404.635,287.077 406.767,286.513 408.848,285.781 410.864,284.887 412.802,283.835 414.651,282.633 416.399,281.287 418.034,279.807 419.546,278.202 420.926,276.482 422.165,274.657 423.255,272.74 424.189,270.742 424.962,268.676 425.568,266.556 426.004,264.394 426.266,262.204 426.354,260" fill="none" stroke="#58a6ff" stroke-width="0.8" opacity="0.5"/><polyline points="429.086,260 429.042,258.898 428.911,257.803 428.693,256.722 428.39,255.662 428.004,254.629 427.537,253.63 426.992,252.672 426.372,251.759 425.682,250.899 424.926,250.096 424.109,249.356 423.235,248.684 422.31,248.082 421.341,247.556 420.333,247.109 419.293,246.744 418.227,246.462 417.141,246.265 416.044,246.156 414.942,246.134 413.841,246.2 412.749,246.353 411.672,246.592 410.618,246.916 409.593,247.323 408.604,247.81 407.656,248.374 406.756,249.011 405.91,249.718 405.123,250.49 404.399,251.322 403.744,252.209 403.161,253.145 402.655,254.125 402.228,255.142 401.883,256.189 401.622,257.261 401.447,258.349 401.36,259.449 401.36,260.551 401.447,261.651 401.622,262.739 401.883,263.811 402.228,264.858 402.655,265.875 403.161,266.855 403.744,267.791 404.399,268.678 405.123,269.51 405.91,270.282 406.756,270.989 407.656,271.626 408.604,272.19 409.593,272.677 410.618,273.084 411.672,273.408 412.749,273.647 413.841,273.8 414.942,273.866 416.044,273.844 417.141,273.735 418.227,273.538 419.293,273.256 420.333,272.891 421.341,272.444 422.31,271.918 423.235,271.316 424.109,270.644 424.926,269.904 425.682,269.101 426.372,268.241 426.992,267.328 427.537,266.37 428.004,265.371 428.39,264.338 428.693,263.278 428.911,262.197 429.042,261.102 429.086,260" fill="none" stroke="#58a6ff" stroke-width="0.8" opacity="0.5"/><line x1="431.818" y1="260" x2="200.982" y2="-90.877" stroke="#f0c674" stroke-width="2" opacity="1"/><line x1="431.818" y1="260" x2="200.982" y2="610.877" stroke="#f0c674" stroke-width="2" opacity="1"/><circle cx="431.818" cy="260" r="4" fill="#f0c674" stroke="none" stroke-width="0" opacity="1"/><text x="260" y="26" font-size="14" fill="#e6edf3" text-anchor="middle" font-family="monospace">Cherenkov cone  n=1.33  beta=0.9</text><text x="260" y="504" font-size="11" fill="#8b949e" text-anchor="middle" font-family="monospace">cos(theta_c)=1/(n beta)=0.835</text></svg>
