<svg xmlns="http://www.w3.org/2000/svg" width="520" height="520" viewBox="0 0 520 520"><rect width="520" height="520" fill="#0b0e14"/><line x1="60" y1="460" x2="460" y2="460" stroke="#30363d" stroke-width="1" opacity="1"/><line x1="60" y1="60" x2="60" y2="460" stroke="#30363d" stroke-width="1" opacity="1"/><line x1="60" y1="460" x2="460" y2="96.364" stroke="#f0c674" stroke-width="1.6" opacity="0.9"/><line x1="60" y1="460" x2="460" y2="192.451" stroke="#8b949e" stroke-width="1" opacity="0.6"/><polyline points="96.364,399.394 132.727,379.192 169.091,358.99 205.455,318.586 241.818,298.384 278.182,278.182 314.545,237.778 350.909,217.576 387.273,197.374 423.636,156.97 460,136.768" fill="none" stroke="#58a6ff" stroke-width="2" opacity="1"/><circle cx="96.364" cy="399.394" r="3" fill="#58a6ff" stroke="none" stroke-width="0" opacity="1"/><circle cx="132.727" cy="379.192" r="3" fill="#58a6ff" stroke="none" stroke-width="0" opacity="1"/><circle cx="169.091" cy="358.99" r="3" fill="#58a6ff" stroke="none" stroke-width="0" opacity="1"/><circle cx="205.455" cy="318.586" r="3" fill="#58a6ff" stroke="none" stroke-width="0" opacity="1"/><circle cx="241.818" cy="298.384" r="3" fill="#58a6ff" stroke="none" stroke-width="0" opacity="1"/><circle cx="278.182" cy="278.182" r="3" fill="#58a6ff" stroke="none" stroke-width="0" opacity="1"/><circle cx="314.545" cy="237.778" r="3" fill="#58a6ff" stroke="none" stroke-width="0" opacity="1"/><circle cx="350.909" cy="217.576" r="3" fill="#58a6ff" stroke="none" stroke-width="0" opacity="1"/><circle cx="387.273" cy="197.374" r="3" fill="#58a6ff" stroke="none" stroke-width="0" opacity="1"/><circle cx="423.636" cy="156.97" r="3" fill="#58a6ff" stroke="none" stroke-width="0" opacity="1"/><circle cx="460" cy="136.768" r="3" fill="#58a6ff" stroke="none" stroke-width="0" opacity="1"/><text x="260" y="26" font-size="14" fill="#e6edf3" text-anchor="middle" font-family="monospace">Lieb-Robinson light cone</text><text x="260" y="500" font-size="11" fill="#8b949e" text-anchor="middle" font-family="monospace">blue: info front   gold: v_LR t   grey: group 2J t</text></svg>
