<svg xmlns="http://www.w3.org/2000/svg" width="920" height="560" viewBox="0 0 920 560">
  <rect width="100%" height="100%" fill="#ffffff" />
  <text x="80" y="28" font-size="20" font-family="Arial, sans-serif" font-weight="700">GaugeGap gaugegap-u1-0001: U(1) mass gap vs magnetic coupling</text>
  <g font-family="Arial, sans-serif" fill="#111827">
    <line x1="80.00" y1="45" x2="80.00" y2="485" stroke="#e5e7eb" /><text x="80.00" y="518" font-size="12" text-anchor="middle">0.1</text><line x1="242.00" y1="45" x2="242.00" y2="485" stroke="#e5e7eb" /><text x="242.00" y="518" font-size="12" text-anchor="middle">0.68</text><line x1="404.00" y1="45" x2="404.00" y2="485" stroke="#e5e7eb" /><text x="404.00" y="518" font-size="12" text-anchor="middle">1.3</text><line x1="566.00" y1="45" x2="566.00" y2="485" stroke="#e5e7eb" /><text x="566.00" y="518" font-size="12" text-anchor="middle">1.8</text><line x1="728.00" y1="45" x2="728.00" y2="485" stroke="#e5e7eb" /><text x="728.00" y="518" font-size="12" text-anchor="middle">2.4</text><line x1="890.00" y1="45" x2="890.00" y2="485" stroke="#e5e7eb" /><text x="890.00" y="518" font-size="12" text-anchor="middle">3</text><line x1="80" y1="485.00" x2="890" y2="485.00" stroke="#e5e7eb" /><text x="68" y="489.00" font-size="12" text-anchor="end">0</text><line x1="80" y1="397.00" x2="890" y2="397.00" stroke="#e5e7eb" /><text x="68" y="401.00" font-size="12" text-anchor="end">0.0714</text><line x1="80" y1="309.00" x2="890" y2="309.00" stroke="#e5e7eb" /><text x="68" y="313.00" font-size="12" text-anchor="end">0.143</text><line x1="80" y1="221.00" x2="890" y2="221.00" stroke="#e5e7eb" /><text x="68" y="225.00" font-size="12" text-anchor="end">0.214</text><line x1="80" y1="133.00" x2="890" y2="133.00" stroke="#e5e7eb" /><text x="68" y="137.00" font-size="12" text-anchor="end">0.286</text><line x1="80" y1="45.00" x2="890" y2="45.00" stroke="#e5e7eb" /><text x="68" y="49.00" font-size="12" text-anchor="end">0.357</text>
    <rect x="80" y="45" width="810" height="440" fill="none" stroke="#111827" stroke-width="1.2" />
    <polyline points="80.00,127.62 282.50,439.62 485.00,461.76 687.50,469.41 890.00,473.27" fill="none" stroke="#1f77b4" stroke-width="2.5" /><circle cx="80.00" cy="127.62" r="3.5" fill="#1f77b4" /><circle cx="282.50" cy="439.62" r="3.5" fill="#1f77b4" /><circle cx="485.00" cy="461.76" r="3.5" fill="#1f77b4" /><circle cx="687.50" cy="469.41" r="3.5" fill="#1f77b4" /><circle cx="890.00" cy="473.27" r="3.5" fill="#1f77b4" /><polyline points="80.00,45.00 282.50,215.75 485.00,281.56 687.50,327.87 890.00,358.63" fill="none" stroke="#d62728" stroke-width="2.5" /><circle cx="80.00" cy="45.00" r="3.5" fill="#d62728" /><circle cx="282.50" cy="215.75" r="3.5" fill="#d62728" /><circle cx="485.00" cy="281.56" r="3.5" fill="#d62728" /><circle cx="687.50" cy="327.87" r="3.5" fill="#d62728" /><circle cx="890.00" cy="358.63" r="3.5" fill="#d62728" /><polyline points="80.00,169.67 282.50,480.12 485.00,483.71 687.50,484.42 890.00,484.67" fill="none" stroke="#2ca02c" stroke-width="2.5" /><circle cx="80.00" cy="169.67" r="3.5" fill="#2ca02c" /><circle cx="282.50" cy="480.12" r="3.5" fill="#2ca02c" /><circle cx="485.00" cy="483.71" r="3.5" fill="#2ca02c" /><circle cx="687.50" cy="484.42" r="3.5" fill="#2ca02c" /><circle cx="890.00" cy="484.67" r="3.5" fill="#2ca02c" /><polyline points="80.00,84.18 282.50,329.59 485.00,405.52 687.50,441.56 890.00,458.35" fill="none" stroke="#9467bd" stroke-width="2.5" /><circle cx="80.00" cy="84.18" r="3.5" fill="#9467bd" /><circle cx="282.50" cy="329.59" r="3.5" fill="#9467bd" /><circle cx="485.00" cy="405.52" r="3.5" fill="#9467bd" /><circle cx="687.50" cy="441.56" r="3.5" fill="#9467bd" /><circle cx="890.00" cy="458.35" r="3.5" fill="#9467bd" /><polyline points="80.00,179.72 282.50,484.42 485.00,484.92 687.50,484.98 890.00,484.99" fill="none" stroke="#ff7f0e" stroke-width="2.5" /><circle cx="80.00" cy="179.72" r="3.5" fill="#ff7f0e" /><circle cx="282.50" cy="484.42" r="3.5" fill="#ff7f0e" /><circle cx="485.00" cy="484.92" r="3.5" fill="#ff7f0e" /><circle cx="687.50" cy="484.98" r="3.5" fill="#ff7f0e" /><circle cx="890.00" cy="484.99" r="3.5" fill="#ff7f0e" /><polyline points="80.00,95.71 282.50,381.88 485.00,450.61 687.50,471.86 890.00,478.84" fill="none" stroke="#17becf" stroke-width="2.5" /><circle cx="80.00" cy="95.71" r="3.5" fill="#17becf" /><circle cx="282.50" cy="381.88" r="3.5" fill="#17becf" /><circle cx="485.00" cy="450.61" r="3.5" fill="#17becf" /><circle cx="687.50" cy="471.86" r="3.5" fill="#17becf" /><circle cx="890.00" cy="478.84" r="3.5" fill="#17becf" />
    <line x1="750" y1="45" x2="780" y2="45" stroke="#1f77b4" stroke-width="3" /><text x="788" y="50" font-size="14">L=2,T=1</text><line x1="750" y1="67" x2="780" y2="67" stroke="#d62728" stroke-width="3" /><text x="788" y="72" font-size="14">L=2,T=2</text><line x1="750" y1="89" x2="780" y2="89" stroke="#2ca02c" stroke-width="3" /><text x="788" y="94" font-size="14">L=3,T=1</text><line x1="750" y1="111" x2="780" y2="111" stroke="#9467bd" stroke-width="3" /><text x="788" y="116" font-size="14">L=3,T=2</text><line x1="750" y1="133" x2="780" y2="133" stroke="#ff7f0e" stroke-width="3" /><text x="788" y="138" font-size="14">L=4,T=1</text><line x1="750" y1="155" x2="780" y2="155" stroke="#17becf" stroke-width="3" /><text x="788" y="160" font-size="14">L=4,T=2</text>
    <text x="485.00" y="548" font-size="14" text-anchor="middle">magnetic coupling g_mag</text>
    <text x="22" y="265.00" font-size="14" text-anchor="middle" transform="rotate(-90 22 265.00)">mass gap E1 - E0</text>
  </g>
</svg>
