<svg xmlns="http://www.w3.org/2000/svg" width="640" height="450" viewBox="0 0 640 450">
<rect width="640" height="450" rx="18" fill="#0b0e14"/>
<defs><linearGradient id="g" x1="0" x2="1"><stop offset="0" stop-color="#58a6ff"/><stop offset=".5" stop-color="#d2a8ff"/><stop offset="1" stop-color="#7ee787"/></linearGradient></defs>
<text x="320" y="30" fill="#e6edf3" font-size="18" text-anchor="middle" font-family="system-ui, sans-serif">Rössler attractor · x/y</text>
<polyline points="476.3,130.3 396.4,90.5 318.4,67.3 252.0,59.7 191.1,66.7 137.3,87.8 95.9,121.8 72.0,165.9 69.3,216.1 89.4,267.7 131.7,315.2 193.3,353.5 269.0,377.8 351.6,384.9 433.0,372.7 504.1,341.4 555.3,293.3 572.3,233.4 518.9,172.8 381.1,132.1 284.3,118.8 237.9,120.7 205.0,131.8 179.8,150.5 164.5,175.4 161.3,204.2 171.2,234.1 194.0,262.1 228.4,285.1 271.3,300.4 318.8,305.8 366.3,300.3 408.6,283.6 440.9,256.8 458.9,222.2 459.5,183.1 441.3,143.4 405.8,107.5 356.7,79.3 298.9,62.1 237.1,58.0 177.0,68.3 124.7,92.7 86.2,129.7 66.3,176.2 68.6,227.9 94.0,279.7 141.6,326.3 207.7,362.4 286.6,383.6 370.9,386.6 452.0,369.9 520.5,334.2 566.4,282.2 570.9,220.2 487.5,162.3 342.6,130.4 265.9,123.6 227.7,129.0 199.6,142.5 179.6,162.6 169.8,187.7 171.8,215.4 186.2,243.0 212.3,267.6 248.2,286.4 290.6,297.1 335.7,298.0 378.6,288.4 414.9,268.7 440.0,240.3 450.5,205.6 444.2,168.2 420.7,131.8 382.2,100.5 332.4,77.6 275.7,65.9 217.0,67.3 162.2,82.4 117.0,110.5 86.9,149.5 76.0,196.1 86.7,245.8 119.3,293.6 171.8,334.5 240.0,363.7 317.8,377.3 397.6,372.9 470.9,349.9 529.0,309.5 561.7,255.4 549.6,194.6 459.0,141.4 337.6,112.3 267.2,104.3 222.3,108.8 185.6,123.3 157.6,146.5 141.7,176.5 140.1,210.6 154.0,245.5 182.9,277.7 224.9,303.5 276.3,319.8 332.3,324.4 387.4,315.9 435.6,294.5 471.1,261.6 488.8,220.1 484.5,174.1 456.4,129.0 407.8,90.0 346.8,61.7 280.3,46.8 212.5,46.9 148.6,62.8 95.3,93.8 58.8,137.7 44.0,190.6 53.9,247.7 89.1,303.3 147.5,351.3 224.6,386.4 313.5,403.9 405.5,400.9 491.0,376.3 559.5,331.7 596.0,271.1 552.4,205.5 372.6,163.2 263.4,156.6 233.6,164.1 220.5,176.8 214.8,192.5 216.7,209.8 226.2,226.8 242.9,241.9 265.5,253.2 292.1,259.4 320.0,259.5 346.4,253.1 368.5,240.4 383.6,222.4 389.7,200.6 385.6,177.2 371.1,154.4 347.1,134.7 315.6,120.3 279.4,113.1 241.9,114.2 206.9,124.1 178.3,142.3 159.4,167.5 152.8,197.3 160.0,229.1 181.3,259.6 215.2,285.6 259.0,304.0 308.8,312.4 359.8,309.2 406.5,294.2 443.7,268.0 466.6,232.9 471.4,192.1 456.0,149.8 421.2,110.7 371.2,79.2 311.7,58.7 247.5,51.6 183.9,59.4 127.2,82.2 83.8,118.4 59.0,165.3 56.7,218.6 78.6,273.1 123.9,323.2 189.5,363.4 269.9,388.8 357.4,395.8 443.3,382.4 518.2,348.8 571.2,297.6 583.0,234.6 496.6,174.6 333.9,143.6 258.4,139.9 227.9,147.3 208.0,161.0 195.9,179.4 192.8,200.9 199.6,223.4 216.1,244.6 241.4,262.2 273.3,274.2 308.9,278.8 344.7,275.2 376.9,263.3 401.9,243.6 416.5,217.9 418.5,188.5 406.8,158.2 382.2,130.3 346.4,107.7 302.7,93.1 254.9,88.6 207.6,95.1 165.8,112.8 134.2,140.4 116.7,175.8 116.1,215.7 133.6,256.3 168.5,293.4 218.3,322.7 278.8,340.9 344.2,345.1 408.0,334.2 463.2,308.2 503.0,269.1 520.4,220.4 508.1,167.7 460.3,118.6 388.0,81.0 315.0,58.4 247.2,51.1 183.0,59.0 126.2,82.0 82.7,118.5 58.0,165.6 55.9,219.1 78.0,273.8 123.7,324.1 189.8,364.3 270.5,389.7 358.4,396.5 444.6,382.9 519.6,349.0 572.5,297.5 583.5,234.2 493.5,174.5 330.0,144.4 256.7,141.5 227.3,149.2 208.4,163.1 197.3,181.4 195.0,202.6 202.4,224.6 219.4,245.2 244.7,262.1 276.4,273.2 311.4,277.2 346.3,273.0 377.4,260.6 401.1,240.8 414.5,215.2 415.4,186.2 402.9,156.6 377.8,129.6 342.0,108.0 298.7,94.4 251.7,90.8 205.6,98.1 165.3,116.3 135.3,144.1 119.4,179.3 120.3,218.6 138.8,258.3 174.3,294.1 224.2,322.2 284.1,338.9 348.3,341.9 410.5,329.9 463.6,303.3 501.1,264.1 516.4,215.8 502.8,163.9 456.0,115.7 386.6,78.6 315.0,56.0 246.7,48.6 181.5,56.6 123.6,79.8 79.3,116.9 54.1,164.8 51.8,219.2 74.2,274.9 120.6,326.0 187.6,367.0 269.7,392.9 359.1,400.0 446.9,386.2 523.2,351.9 577.0,299.6 586.4,235.4 484.9,176.2 317.4,149.3 251.2,148.7 226.3,157.7 211.4,171.9 204.0,189.7 205.2,209.4 215.1,229.1 233.5,246.8 258.8,260.4 288.9,268.3 321.0,269.2 351.8,262.6 377.9,248.8 396.3,228.8 404.5,204.1 401.0,177.3 385.6,150.9 359.1,127.8 323.7,110.6 282.6,101.3 239.6,101.6 199.1,111.8 165.3,131.7 142.2,159.7 133.0,193.5 139.6,229.8 162.2,265.1 199.6,295.6 248.8,317.8 305.4,328.7 363.9,326.6 418.3,310.8 462.3,282.2 490.2,242.9 496.9,196.9 478.5,149.1 435.3,105.5 375.4,71.5 308.8,50.4 240.2,44.0 173.5,53.4 114.6,78.5 70.2,117.6 45.8,167.7 45.2,224.1 70.2,281.3 119.7,333.5 190.2,374.8 275.6,400.2 368.0,406.0" fill="none" stroke="url(#g)" stroke-width="1.05" opacity=".92" stroke-linejoin="round" stroke-linecap="round"/>
<text x="320" y="436" fill="#8b949e" font-size="11" text-anchor="middle" font-family="monospace">finite RK4 trajectory · visual evidence, not a proof of chaos</text>
</svg>