<svg xmlns="http://www.w3.org/2000/svg" width="520" height="520" viewBox="0 0 520 520"><rect width="520" height="520" fill="#0b0e14"/><line x1="64" y1="456" x2="456" y2="456" stroke="#30363d" stroke-width="1" opacity="1"/><line x1="64" y1="64" x2="64" y2="456" stroke="#30363d" stroke-width="1" opacity="1"/><line x1="64" y1="64" x2="456" y2="64" stroke="#8b949e" stroke-width="1" opacity="0.5"/><polyline points="64,64 88.5,220.8 113,314.88 137.5,371.328 162,405.197 186.5,425.518 211,437.711 235.5,445.027 260,449.416 284.5,452.05 309,453.63 333.5,454.578 358,455.147 382.5,455.488 407,455.693 431.5,455.816 456,455.889" fill="none" stroke="#58a6ff" stroke-width="2" opacity="1"/><polyline points="64,325.333 88.5,228.093 113,144.691 137.5,97.456 162,76.74 186.5,68.684 211,65.699 235.5,64.613 260,64.221 284.5,64.08 309,64.029 333.5,64.01 358,64.004 382.5,64.001 407,64 431.5,64 456,64" fill="none" stroke="#f0c674" stroke-width="2" opacity="1"/><text x="260" y="28" font-size="15" fill="#e6edf3" text-anchor="middle" font-family="monospace">Decoherence -&gt; branching</text><text x="260" y="498" font-size="11" fill="#8b949e" text-anchor="middle" font-family="monospace">environment size n_env</text><text x="70" y="68" font-size="10" fill="#f0c674" text-anchor="start" font-family="monospace">gold: N_eff -&gt; d=3</text><text x="70" y="84" font-size="10" fill="#58a6ff" text-anchor="start" font-family="monospace">blue: l1 coherence -&gt; 0</text></svg>
