<svg xmlns="http://www.w3.org/2000/svg" width="520" height="520" viewBox="0 0 520 520"><rect width="520" height="520" fill="#0b0e14"/><line x1="64" y1="122.8" x2="456" y2="122.8" stroke="#8b949e" stroke-width="1" opacity="0.6"/><line x1="64" y1="64" x2="64" y2="456" stroke="#30363d" stroke-width="1" opacity="1"/><polyline points="64,122.8 64.982,122.8 65.965,122.8 66.947,122.8 67.93,122.8 68.912,122.8 69.895,122.8 70.877,122.8 71.86,122.8 72.842,122.8 73.825,122.8 74.807,122.8 75.789,122.8 76.772,122.8 77.754,122.8 78.737,122.8 79.719,122.8 80.702,122.8 81.684,122.8 82.667,122.8 83.649,122.8 84.632,122.8 85.614,122.8 86.596,122.8 87.579,122.8 88.561,122.8 89.544,122.8 90.526,122.8 91.509,122.8 92.491,122.8 93.474,122.8 94.456,122.8 95.439,122.8 96.421,122.8 97.404,122.8 98.386,122.8 99.368,122.8 100.351,122.8 101.333,122.8 102.316,122.8 103.298,122.8 104.281,122.8 105.263,122.8 106.246,122.8 107.228,122.8 108.211,122.8 109.193,122.8 110.175,122.8 111.158,122.8 112.14,122.8 113.123,122.8 114.105,122.8 115.088,122.8 116.07,122.8 117.053,122.8 118.035,122.8 119.018,122.8 120,122.8 120.982,122.8 121.965,122.8 122.947,122.8 123.93,122.8 124.912,122.8 125.895,122.8 126.877,122.8 127.86,122.8 128.842,122.8 129.825,122.8 130.807,122.8 131.789,122.8 132.772,122.8 133.754,122.8 134.737,122.8 135.719,122.8 136.702,122.8 137.684,122.8 138.667,122.8 139.649,122.8 140.632,122.8 141.614,122.8 142.596,122.8 143.579,122.8 144.561,122.8 145.544,122.8 146.526,122.8 147.509,122.8 148.491,122.8 149.474,122.8 150.456,122.8 151.439,122.8 152.421,122.8 153.404,122.8 154.386,122.8 155.368,122.8 156.351,122.8 157.333,122.8 158.316,122.8 159.298,122.8 160.281,122.8 161.263,122.8 162.246,122.8 163.228,122.8 164.211,122.8 165.193,122.8 166.175,122.801 167.158,122.801 168.14,122.801 169.123,122.802 170.105,122.804 171.088,122.806 172.07,122.81 173.053,122.816 174.035,122.827 175.018,122.843 176,122.87 176.982,122.913 177.965,122.983 178.947,123.095 179.93,123.274 180.912,123.561 181.895,124.017 182.877,124.737 183.86,125.868 184.842,127.627 185.825,130.335 186.807,134.448 187.789,140.594 188.772,149.595 189.754,162.457 190.737,180.288 191.719,204.121 192.702,234.59 193.684,271.498 194.667,313.354 195.649,357.08 196.632,398.144 197.614,431.254 198.596,451.567 199.579,456 200.561,444.119 201.544,418.2 202.526,382.465 203.509,341.866 204.491,300.935 205.474,263.043 206.456,230.178 207.439,203.096 208.421,181.675 209.404,165.277 210.386,153.048 211.368,144.118 212.351,137.704 213.333,133.155 214.316,129.963 215.298,127.739 216.281,126.198 217.263,125.136 218.246,124.405 219.228,123.904 220.211,123.56 221.193,123.323 222.175,123.162 223.158,123.05 224.14,122.974 225.123,122.921 226.105,122.884 227.088,122.859 228.07,122.842 229.053,122.829 230.035,122.821 231.018,122.815 232,122.811 232.982,122.808 233.965,122.806 234.947,122.804 235.93,122.803 236.912,122.802 237.895,122.802 238.877,122.801 239.86,122.801 240.842,122.801 241.825,122.801 242.807,122.8 243.789,122.8 244.772,122.8 245.754,122.8 246.737,122.8 247.719,122.8 248.702,122.8 249.684,122.8 250.667,122.8 251.649,122.8 252.632,122.8 253.614,122.8 254.596,122.8 255.579,122.8 256.561,122.8 257.544,122.8 258.526,122.8 259.509,122.8 260.491,122.8 261.474,122.8 262.456,122.8 263.439,122.8 264.421,122.8 265.404,122.8 266.386,122.8 267.368,122.8 268.351,122.8 269.333,122.8 270.316,122.8 271.298,122.8 272.281,122.8 273.263,122.8 274.246,122.8 275.228,122.8 276.211,122.8 277.193,122.8 278.175,122.801 279.158,122.801 280.14,122.801 281.123,122.801 282.105,122.802 283.088,122.802 284.07,122.803 285.053,122.804 286.035,122.806 287.018,122.808 288,122.811 288.982,122.815 289.965,122.821 290.947,122.829 291.93,122.842 292.912,122.859 293.895,122.884 294.877,122.921 295.86,122.974 296.842,123.05 297.825,123.162 298.807,123.323 299.789,123.56 300.772,123.904 301.754,124.405 302.737,125.136 303.719,126.198 304.702,127.739 305.684,129.963 306.667,133.155 307.649,137.704 308.632,144.118 309.614,153.048 310.596,165.277 311.579,181.675 312.561,203.096 313.544,230.178 314.526,263.043 315.509,300.935 316.491,341.866 317.474,382.465 318.456,418.2 319.439,444.119 320.421,456 321.404,451.567 322.386,431.254 323.368,398.144 324.351,357.08 325.333,313.354 326.316,271.498 327.298,234.59 328.281,204.121 329.263,180.288 330.246,162.457 331.228,149.595 332.211,140.594 333.193,134.448 334.175,130.335 335.158,127.627 336.14,125.868 337.123,124.737 338.105,124.017 339.088,123.561 340.07,123.274 341.053,123.095 342.035,122.983 343.018,122.913 344,122.87 344.982,122.843 345.965,122.827 346.947,122.816 347.93,122.81 348.912,122.806 349.895,122.804 350.877,122.802 351.86,122.801 352.842,122.801 353.825,122.801 354.807,122.8 355.789,122.8 356.772,122.8 357.754,122.8 358.737,122.8 359.719,122.8 360.702,122.8 361.684,122.8 362.667,122.8 363.649,122.8 364.632,122.8 365.614,122.8 366.596,122.8 367.579,122.8 368.561,122.8 369.544,122.8 370.526,122.8 371.509,122.8 372.491,122.8 373.474,122.8 374.456,122.8 375.439,122.8 376.421,122.8 377.404,122.8 378.386,122.8 379.368,122.8 380.351,122.8 381.333,122.8 382.316,122.8 383.298,122.8 384.281,122.8 385.263,122.8 386.246,122.8 387.228,122.8 388.211,122.8 389.193,122.8 390.175,122.8 391.158,122.8 392.14,122.8 393.123,122.8 394.105,122.8 395.088,122.8 396.07,122.8 397.053,122.8 398.035,122.8 399.018,122.8 400,122.8 400.982,122.8 401.965,122.8 402.947,122.8 403.93,122.8 404.912,122.8 405.895,122.8 406.877,122.8 407.86,122.8 408.842,122.8 409.825,122.8 410.807,122.8 411.789,122.8 412.772,122.8 413.754,122.8 414.737,122.8 415.719,122.8 416.702,122.8 417.684,122.8 418.667,122.8 419.649,122.8 420.632,122.8 421.614,122.8 422.596,122.8 423.579,122.8 424.561,122.8 425.544,122.8 426.526,122.8 427.509,122.8 428.491,122.8 429.474,122.8 430.456,122.8 431.439,122.8 432.421,122.8 433.404,122.8 434.386,122.8 435.368,122.8 436.351,122.8 437.333,122.8 438.316,122.8 439.298,122.8 440.281,122.8 441.263,122.8 442.246,122.8 443.228,122.8 444.211,122.8 445.193,122.8 446.175,122.8 447.158,122.8 448.14,122.8 449.123,122.8 450.105,122.8 451.088,122.8 452.07,122.8 453.053,122.8 454.035,122.8 455.018,122.8 456,122.8" fill="none" stroke="#58a6ff" stroke-width="2" opacity="1"/><text x="260" y="28" font-size="14" fill="#e6edf3" text-anchor="middle" font-family="monospace">Alcubierre energy density  rho(x)  (off-axis)</text><text x="260" y="498" font-size="11" fill="#8b949e" text-anchor="middle" font-family="monospace">x along travel direction  -  negative wells = bubble walls</text><text x="70" y="114" font-size="10" fill="#8b949e" text-anchor="start" font-family="monospace">rho = 0</text><text x="70" y="450" font-size="10" fill="#f0c674" text-anchor="start" font-family="monospace">rho &lt; 0  (WEC violated)</text></svg>
