<svg xmlns="http://www.w3.org/2000/svg" width="520" height="520" viewBox="0 0 520 520"><rect width="520" height="520" fill="#0b0e14"/><line x1="60" y1="460" x2="460" y2="460" stroke="#30363d" stroke-width="1" opacity="1"/><line x1="60" y1="60" x2="60" y2="460" stroke="#30363d" stroke-width="1" opacity="1"/><polyline points="60,460 61.98,460 63.96,460 65.941,460 67.921,460 69.901,460 71.881,460 73.861,460 75.842,460 77.822,460 79.802,460 81.782,460 83.762,460 85.743,460 87.723,460 89.703,460 91.683,460 93.663,460 95.644,460 97.624,460 99.604,460 101.584,460 103.564,460 105.545,460 107.525,460 109.505,460 111.485,460 113.465,460 115.446,459.999 117.426,459.997 119.406,459.995 121.386,459.992 123.366,459.991 125.347,459.991 127.327,459.994 129.307,459.998 131.287,460 133.267,459.996 135.248,459.979 137.228,459.948 139.208,459.906 141.188,459.865 143.168,459.841 145.149,459.851 147.129,459.899 149.109,459.965 151.089,460 153.069,459.939 155.05,459.726 157.03,459.348 159.01,458.872 160.99,458.443 162.97,458.25 164.95,458.434 166.931,458.984 168.911,459.659 170.891,460 172.871,459.469 174.851,457.698 176.832,454.757 178.812,451.311 180.792,448.525 182.772,447.656 184.752,449.427 186.733,453.432 188.713,457.885 190.693,460 192.673,457.017 194.653,447.59 196.634,432.933 198.614,417.068 200.594,405.737 202.574,404.132 204.554,414.198 206.535,432.754 208.515,451.585 210.495,460 212.475,449.243 214.455,417.079 216.436,370.363 218.416,323.911 220.396,295.381 222.376,297.791 224.356,332.713 226.337,387.497 228.317,438.523 230.297,460 232.277,435.114 234.257,364.769 236.238,269.565 238.218,183.26 240.198,139.62 242.178,157.867 244.158,233.068 246.139,336.228 248.119,424.837 250.099,460 252.079,423.066 254.059,324.451 256.04,200.453 258.02,98.981 260,60 261.98,98.981 263.96,200.453 265.941,324.451 267.921,423.066 269.901,460 271.881,424.837 273.861,336.228 275.842,233.068 277.822,157.867 279.802,139.62 281.782,183.26 283.762,269.565 285.743,364.769 287.723,435.114 289.703,460 291.683,438.523 293.663,387.497 295.644,332.713 297.624,297.791 299.604,295.381 301.584,323.911 303.564,370.363 305.545,417.079 307.525,449.243 309.505,460 311.485,451.585 313.465,432.754 315.446,414.198 317.426,404.132 319.406,405.737 321.386,417.068 323.366,432.933 325.347,447.59 327.327,457.017 329.307,460 331.287,457.885 333.267,453.432 335.248,449.427 337.228,447.656 339.208,448.525 341.188,451.311 343.168,454.757 345.149,457.698 347.129,459.469 349.109,460 351.089,459.659 353.069,458.984 355.05,458.434 357.03,458.25 359.01,458.443 360.99,458.872 362.97,459.348 364.95,459.726 366.931,459.939 368.911,460 370.891,459.965 372.871,459.899 374.851,459.851 376.832,459.841 378.812,459.865 380.792,459.906 382.772,459.948 384.752,459.979 386.733,459.996 388.713,460 390.693,459.998 392.673,459.994 394.653,459.991 396.634,459.991 398.614,459.992 400.594,459.995 402.574,459.997 404.554,459.999 406.535,460 408.515,460 410.495,460 412.475,460 414.455,460 416.436,460 418.416,460 420.396,460 422.376,460 424.356,460 426.337,460 428.317,460 430.297,460 432.277,460 434.257,460 436.238,460 438.218,460 440.198,460 442.178,460 444.158,460 446.139,460 448.119,460 450.099,460 452.079,460 454.059,460 456.04,460 458.02,460 460,460" fill="none" stroke="#58a6ff" stroke-width="1.6" opacity="1"/><text x="260" y="26" font-size="14" fill="#e6edf3" text-anchor="middle" font-family="monospace">Time diffraction: spectral fringes |E(omega)|^2</text><text x="260" y="498" font-size="11" fill="#8b949e" text-anchor="middle" font-family="monospace">angular frequency omega   -   fringe spacing 2pi/dt = 0.785</text></svg>
